<?xml version="1.0" standalone="no"?>
<!DOCTYPE svg PUBLIC "-//W3C//DTD SVG 20010904//EN"
 "http://www.w3.org/TR/2001/REC-SVG-20010904/DTD/svg10.dtd">
<svg version="1.0" xmlns="http://www.w3.org/2000/svg"
 width="3000.000000pt" height="2000.000000pt" viewBox="0 0 3000.000000 2000.000000"
 preserveAspectRatio="xMidYMid meet">

<g transform="translate(0.000000,2000.000000) scale(0.100000,-0.100000)"
fill="#000000" stroke="none">
<path d="M15355 19474 c-135 -29 -254 -100 -315 -188 -67 -98 -97 -238 -80
-372 13 -100 41 -132 141 -164 58 -19 84 -22 176 -18 147 7 200 26 283 104 94
88 148 124 185 124 38 0 51 -14 95 -98 33 -63 89 -122 115 -122 7 0 22 12 33
28 15 21 17 34 11 57 -20 71 40 177 108 191 97 19 100 -178 4 -259 -18 -15
-36 -27 -41 -27 -4 0 -11 -20 -15 -45 -26 -179 -148 -333 -316 -401 -49 -20
-81 -26 -139 -26 -129 0 -162 15 -364 170 -104 80 -148 128 -192 212 -15 30
-29 57 -31 59 -4 7 -143 -109 -200 -168 -114 -116 -196 -241 -293 -446 -210
-441 -289 -654 -290 -775 0 -60 26 -107 112 -200 l69 -75 -28 -12 c-217 -95
-265 -130 -317 -234 -27 -54 -42 -74 -59 -76 -80 -11 -170 -26 -217 -38 -30
-7 -88 -19 -128 -25 -39 -7 -70 -15 -67 -20 3 -4 -3 -6 -12 -4 -29 7 -576
-143 -568 -156 2 -3 -4 -6 -13 -7 -49 -3 -405 -135 -436 -162 -11 -9 -16 -10
-12 -4 5 9 2 11 -8 7 -9 -3 -13 -11 -9 -17 3 -6 1 -7 -5 -3 -6 4 -36 -5 -67
-19 -31 -14 -60 -25 -66 -25 -6 0 -7 -5 -3 -12 4 -6 3 -8 -4 -4 -13 8 -103
-34 -96 -46 3 -4 -1 -6 -8 -3 -15 5 -171 -69 -162 -77 3 -3 -1 -5 -8 -4 -21 2
-147 -67 -141 -77 3 -6 1 -7 -5 -3 -6 3 -28 -3 -49 -15 -21 -12 -72 -40 -113
-62 -66 -35 -207 -122 -235 -145 -5 -4 -17 -11 -26 -14 -19 -7 -300 -196 -391
-263 -46 -34 -63 -52 -55 -58 9 -6 8 -7 -3 -6 -28 3 -39 -1 -69 -27 -17 -14
-28 -31 -24 -36 3 -7 1 -8 -5 -4 -10 6 -174 -114 -247 -181 -11 -10 -45 -38
-75 -63 -30 -25 -62 -51 -72 -59 -9 -8 -14 -19 -11 -25 3 -6 3 -8 -2 -4 -13
12 -293 -245 -287 -264 1 -5 -1 -7 -6 -4 -12 7 -54 -38 -45 -49 5 -4 3 -5 -3
-2 -6 3 -51 -34 -100 -84 -49 -50 -108 -109 -132 -132 -23 -22 -40 -47 -38
-53 3 -9 -1 -11 -11 -7 -13 5 -15 2 -10 -11 4 -9 3 -15 -2 -12 -9 6 -225 -223
-218 -230 91 -99 779 -779 783 -775 3 3 4 1 2 -5 -4 -14 142 -160 155 -156 5
1 6 -1 3 -6 -3 -5 67 -80 155 -168 87 -87 159 -155 159 -150 0 5 7 3 15 -4 8
-7 13 -16 10 -20 -7 -12 196 -210 208 -203 6 3 7 2 4 -4 -9 -14 141 -165 155
-157 7 4 8 3 4 -4 -4 -7 94 -113 245 -267 l253 -255 218 0 c120 0 218 3 218 6
0 4 -148 156 -329 338 -182 182 -436 439 -566 571 -130 132 -456 461 -723 731
-268 271 -496 501 -506 513 -19 21 -19 21 25 69 24 26 80 88 124 138 77 86
459 471 541 545 65 59 266 231 324 279 30 25 57 47 60 50 15 15 158 127 245
190 55 40 116 85 135 99 44 33 372 251 376 251 2 0 44 25 92 55 49 30 94 55
100 55 5 0 12 4 14 8 5 13 155 96 348 192 220 110 391 184 605 265 83 30 166
62 185 70 79 31 323 103 525 155 l110 28 6 -27 c4 -14 7 -43 8 -64 3 -111 81
-335 202 -586 135 -278 285 -614 394 -881 37 -91 68 -166 69 -167 5 -6 210 31
341 62 82 19 153 35 157 35 4 0 8 6 8 13 0 22 -117 424 -254 872 -76 252 -121
414 -116 420 5 6 7 21 3 33 -5 20 -1 22 31 22 20 0 36 5 36 10 0 16 -37 85
-97 183 -30 49 -53 90 -52 91 27 25 250 146 267 146 11 0 95 -179 147 -312 43
-109 41 -108 165 -108 l67 0 7 -50 c4 -28 4 -56 0 -62 -4 -7 -11 -307 -15
-667 -4 -361 -9 -663 -11 -671 -3 -13 29 -15 247 -11 319 4 336 7 347 46 12
44 71 344 123 630 73 397 135 614 192 677 25 28 123 74 193 92 36 8 111 19
168 22 l102 7 0 47 c0 26 3 62 6 79 6 31 7 31 73 31 85 0 217 16 303 36 74 18
78 23 78 108 l0 49 -41 -7 -41 -7 6 123 c24 493 15 1206 -19 1413 -59 364
-206 601 -447 719 -132 65 -233 86 -429 86 l-157 0 -52 107 c-83 170 -188 262
-342 298 -79 19 -241 18 -333 -1z m-159 -1629 c10 -30 22 -55 28 -55 6 0 26
-38 44 -85 101 -261 202 -420 297 -469 29 -15 28 -16 -60 -16 -134 0 -457 -35
-612 -66 -26 -5 -31 -1 -65 64 -21 38 -38 81 -38 96 0 28 80 163 199 336 66
96 181 250 187 250 2 0 11 -25 20 -55z"/>
<path d="M20020 18554 c-48 -9 -47 -7 -36 -91 l11 -78 60 -3 c33 -1 70 -4 82
-7 35 -8 83 -54 83 -80 0 -41 -22 -51 -122 -58 -120 -8 -145 -18 -190 -76
l-37 -48 85 -61 85 -62 30 35 c30 33 34 35 98 35 164 0 256 76 255 211 -1 141
-145 270 -314 282 -36 3 -76 3 -90 1z"/>
<path d="M3318 18334 c-21 -6 -21 -11 -6 -124 l11 -87 72 5 c77 5 125 -11 144
-47 20 -37 -6 -51 -104 -57 -128 -8 -149 -17 -196 -80 -23 -29 -39 -60 -36
-67 6 -15 172 -137 186 -137 5 0 20 15 34 34 25 32 28 33 114 39 103 6 149 23
190 70 118 134 55 331 -135 424 -50 24 -70 28 -157 30 -55 1 -108 -1 -117 -3z
m265 -62 c156 -77 216 -229 135 -348 -33 -49 -87 -71 -193 -78 -84 -6 -92 -8
-117 -36 l-28 -30 -70 51 c-38 28 -70 54 -70 58 0 4 14 23 30 43 35 42 78 58
160 58 118 0 167 35 140 99 -20 49 -72 75 -151 75 l-67 0 -9 68 c-5 38 -7 71
-4 74 3 3 45 4 92 2 72 -3 97 -9 152 -36z"/>
<path d="M19752 17989 c-37 -24 -47 -53 -39 -112 7 -49 60 -103 112 -113 44
-8 100 18 119 55 27 52 21 93 -22 141 -33 37 -44 43 -87 47 -39 3 -57 -1 -83
-18z"/>
<path d="M3089 17776 c-85 -58 -75 -179 21 -237 67 -41 148 -28 187 30 86 128
-81 293 -208 207z m126 -20 c41 -18 75 -69 75 -114 0 -49 -46 -92 -97 -92
-116 0 -174 136 -84 197 40 27 59 28 106 9z"/>
<path d="M23289 16631 c-66 -21 -158 -75 -210 -123 -104 -94 -179 -250 -191
-392 l-3 -40 130 -23 c72 -12 137 -23 146 -23 13 0 20 15 28 61 23 131 93 222
172 222 62 0 67 -44 24 -188 -19 -61 -28 -115 -29 -165 l-1 -75 58 -83 c37
-52 63 -80 70 -75 20 12 262 184 271 193 5 5 -8 31 -29 60 -34 46 -37 55 -31
93 4 23 17 71 29 107 29 87 31 228 3 280 -33 61 -129 146 -191 169 -70 26
-168 27 -246 2z m247 -40 c58 -26 127 -90 157 -146 31 -57 28 -154 -6 -266
-34 -107 -34 -149 -2 -197 14 -20 25 -41 25 -47 -1 -8 -94 -77 -201 -148 l-28
-18 -41 55 c-68 90 -70 130 -14 325 32 110 31 136 -5 172 -34 33 -66 37 -114
13 -76 -39 -123 -107 -147 -216 l-12 -54 -112 20 c-61 11 -113 21 -115 22 -10
8 35 164 66 226 63 124 196 235 332 274 62 18 156 11 217 -15z"/>
<path d="M15225 16308 c-4 -9 3 -45 13 -80 11 -35 23 -106 27 -156 6 -68 11
-92 21 -92 23 0 17 125 -10 230 -25 96 -41 126 -51 98z"/>
<path d="M14990 16243 c0 -5 16 -40 36 -78 22 -44 42 -104 52 -158 10 -56 21
-87 29 -87 18 0 16 44 -7 134 -22 87 -76 196 -96 196 -8 0 -14 -3 -14 -7z"/>
<path d="M15166 16222 c-3 -5 4 -40 14 -78 24 -83 52 -265 48 -308 -2 -22 1
-31 12 -31 22 0 24 58 6 178 -28 181 -59 273 -80 239z"/>
<path d="M15097 16203 c-3 -5 6 -57 19 -118 13 -60 27 -150 30 -198 7 -86 16
-109 35 -90 16 16 -23 284 -57 396 -6 18 -19 23 -27 10z"/>
<path d="M23715 15771 c-123 -56 -176 -177 -126 -287 33 -73 103 -110 197
-102 136 11 243 154 204 272 -36 111 -167 167 -275 117z m136 -21 c111 -31
147 -168 68 -263 -98 -119 -269 -95 -311 44 -24 80 41 186 131 213 57 18 67
18 112 6z"/>
<path d="M14882 14900 c-10 -11 -26 -48 -36 -81 -30 -108 -101 -188 -262 -295
-78 -52 -124 -95 -124 -115 0 -16 53 -22 109 -12 57 11 206 78 341 154 138 77
124 72 130 45 l5 -24 50 21 c125 55 121 49 129 185 4 68 2 84 -10 89 -8 3 -57
-10 -109 -29 l-93 -35 -7 36 c-13 72 -81 106 -123 61z"/>
<path d="M15804 14789 c-32 -17 -71 -40 -86 -50 -33 -24 -45 -24 -53 0 -12 39
-46 71 -75 71 -52 0 -69 -26 -79 -120 -4 -47 -17 -107 -29 -133 -25 -56 -92
-145 -185 -246 -80 -86 -87 -117 -25 -114 21 1 57 12 80 24 63 31 231 169 374
307 18 17 24 15 24 -8 0 -30 20 -24 75 20 77 63 82 72 90 159 12 132 -5 146
-111 90z"/>
<path d="M14872 13654 c4 -3 28 -8 55 -10 26 -2 71 -9 98 -14 28 -6 64 -12 80
-15 17 -2 54 -11 84 -19 30 -8 58 -13 62 -10 4 2 9 -1 11 -7 2 -6 20 -11 40
-12 20 0 35 -4 32 -8 -2 -4 3 -10 12 -13 8 -3 12 -2 9 4 -3 6 10 1 29 -11 19
-11 41 -17 47 -13 7 4 9 3 6 -3 -6 -9 59 -39 76 -35 4 1 7 -2 7 -7 0 -5 12
-14 28 -20 33 -13 56 -28 95 -61 16 -14 33 -25 38 -25 5 0 13 -4 17 -10 4 -5
30 -31 59 -57 29 -27 49 -48 46 -48 -4 0 3 -10 14 -22 51 -56 125 -210 139
-288 4 -19 10 -40 15 -46 8 -10 6 -304 -2 -334 -3 -8 -8 -20 -12 -27 -4 -6 -4
-19 0 -29 4 -12 3 -15 -5 -10 -7 4 -12 1 -12 -7 0 -7 -9 -32 -20 -55 -11 -22
-20 -46 -20 -52 0 -5 -5 -10 -11 -10 -6 0 -8 -7 -5 -16 3 -8 2 -12 -3 -9 -5 3
-13 -5 -16 -17 -4 -13 -16 -33 -27 -45 -12 -12 -17 -27 -13 -34 5 -7 4 -10 -2
-6 -6 4 -19 -6 -29 -21 -20 -31 -97 -125 -134 -163 -56 -58 -72 -78 -74 -95
-2 -11 -9 -19 -17 -19 -8 -1 -13 -6 -12 -13 2 -6 -3 -9 -10 -7 -13 5 -124 -93
-119 -107 1 -4 -4 -7 -10 -6 -7 2 -12 -3 -10 -10 1 -8 -2 -11 -7 -8 -9 6 -26
-10 -33 -29 -1 -5 -9 -10 -17 -12 -12 -1 -31 -17 -80 -63 -9 -8 -103 -84 -208
-169 -106 -84 -190 -158 -186 -164 3 -6 1 -7 -5 -3 -20 12 -177 -117 -166
-137 5 -9 4 -9 -6 0 -11 10 -17 8 -32 -9 -10 -12 -18 -17 -18 -13 0 5 -12 -3
-27 -16 -16 -14 -57 -48 -93 -75 -171 -131 -205 -158 -210 -164 -3 -3 -48 -40
-100 -82 -52 -41 -106 -85 -120 -97 -14 -12 -45 -39 -69 -59 -24 -20 -70 -61
-102 -89 -32 -29 -70 -63 -85 -75 -15 -13 -72 -67 -128 -120 -56 -54 -104 -98
-108 -98 -4 0 -15 -11 -24 -25 -14 -21 -14 -28 -3 -43 12 -15 11 -15 -8 1 -21
18 -21 18 -28 -2 -3 -11 -12 -20 -18 -18 -7 1 -11 -6 -9 -17 2 -10 -1 -15 -6
-12 -10 6 -52 -37 -143 -147 -35 -43 -74 -91 -87 -105 -12 -15 -20 -32 -18
-39 3 -8 -1 -10 -11 -6 -13 5 -15 2 -10 -11 4 -9 3 -15 -2 -12 -5 3 -21 -11
-37 -31 -15 -20 -22 -33 -16 -29 8 5 10 2 6 -8 -3 -9 -10 -14 -16 -13 -5 1
-17 -12 -26 -28 -10 -17 -27 -45 -40 -62 -13 -18 -21 -37 -17 -42 3 -6 -4 -15
-15 -21 -11 -6 -18 -15 -15 -21 4 -5 2 -9 -4 -9 -15 0 -140 -261 -165 -345 -2
-5 -6 -17 -9 -25 -16 -43 -48 -166 -63 -245 -13 -66 -18 -140 -19 -276 0 -120
-4 -185 -10 -182 -5 2 -25 24 -43 48 -55 72 -158 172 -199 193 -171 87 -474
141 -903 163 -464 23 -726 -11 -984 -131 -75 -34 -196 -108 -234 -144 -89 -81
-145 -371 -172 -901 -16 -306 -9 -741 13 -818 46 -158 177 -458 262 -596 20
-34 35 -72 35 -90 0 -17 4 -31 8 -31 5 0 5 -28 0 -62 -5 -35 -22 -161 -38
-280 l-29 -218 30 -29 c34 -35 33 24 19 -611 -5 -250 -11 -669 -15 -930 -3
-261 -7 -506 -10 -545 -2 -38 -7 -155 -10 -260 -3 -104 -8 -237 -10 -295 -5
-92 -34 -869 -50 -1310 -3 -85 -8 -194 -11 -242 l-6 -86 31 -16 30 -16 3 -118
3 -117 308 -3 309 -2 75 72 c92 89 168 195 188 261 28 95 -17 140 -162 161
l-73 10 5 46 c3 25 14 162 25 305 21 263 66 814 75 915 3 30 16 192 30 360 62
772 78 968 105 1303 17 197 30 370 30 384 0 15 2 24 5 21 3 -2 97 -290 209
-639 l204 -634 21 -945 c29 -1265 27 -1226 57 -1272 23 -36 24 -45 24 -203 l0
-165 306 0 306 0 136 62 c263 118 495 243 560 301 56 51 6 130 -106 164 -76
24 -316 24 -412 0 -36 -8 -68 -13 -71 -9 -4 4 -10 131 -13 282 -4 151 -11 417
-16 590 -5 173 -12 401 -15 505 -3 105 -8 262 -11 350 -5 158 -5 160 13 128
49 -86 119 -171 247 -299 120 -119 161 -157 241 -222 6 -4 25 -17 43 -27 17
-11 32 -22 32 -26 0 -4 21 -20 48 -35 26 -16 55 -33 64 -39 175 -106 437 -223
593 -264 249 -65 369 -82 610 -87 210 -4 218 1 55 31 -156 29 -267 61 -415
117 -102 40 -293 134 -367 181 -31 21 -60 37 -63 37 -5 0 -153 108 -165 120
-3 3 -41 35 -85 72 -84 70 -180 167 -255 258 -25 30 -47 57 -50 60 -20 19 -77
99 -127 180 -177 285 -271 567 -293 873 -24 351 48 693 218 1032 54 110 130
237 151 255 4 3 19 25 35 50 104 161 337 383 561 536 249 170 607 306 913 347
l87 11 -55 9 c-48 8 -308 -3 -400 -17 -14 -3 -40 -5 -58 -5 -18 -1 -31 -4 -29
-8 3 -5 -9 -9 -26 -9 -78 -3 -270 -46 -293 -65 -6 -5 -13 -7 -16 -4 -5 5 -72
-16 -113 -34 -11 -5 -51 -22 -90 -36 -158 -61 -484 -254 -477 -284 1 -7 -2
-10 -8 -6 -25 15 -271 -216 -394 -370 -83 -104 -179 -252 -172 -264 3 -4 -1
-8 -9 -8 -12 0 -15 19 -15 93 l0 93 60 27 c56 25 60 29 60 60 0 19 -20 274
-45 567 -25 292 -59 687 -75 877 -16 189 -27 346 -25 348 2 3 60 -20 127 -50
68 -31 133 -59 146 -62 21 -7 22 -12 24 -144 1 -75 1 -149 0 -164 l-2 -28 229
0 229 0 -3 35 c-7 77 -9 125 -4 130 3 2 37 -2 75 -10 94 -20 208 -19 243 1 39
23 87 98 115 181 71 208 116 606 116 1024 l0 176 -42 16 c-82 31 -149 39 -293
35 -79 -2 -147 -6 -151 -10 -4 -4 -20 -159 -35 -345 -16 -186 -30 -345 -33
-353 -5 -18 -12 576 -9 750 1 69 9 170 17 225 9 55 18 150 21 210 11 233 57
425 106 440 30 10 49 -17 49 -69 1 -36 2 -38 12 -21 28 51 123 211 128 215 3
3 23 32 45 65 38 57 166 217 199 250 9 9 16 20 16 25 0 4 84 93 188 197 169
171 320 310 487 448 33 28 65 55 71 60 6 6 38 31 70 57 33 26 86 69 119 95 32
26 134 106 225 176 169 131 223 174 244 193 6 6 18 15 27 20 9 5 34 23 55 41
22 17 100 79 174 138 74 58 151 120 170 137 19 16 59 51 89 76 172 148 365
344 457 464 42 54 144 220 144 234 0 3 6 20 14 37 47 108 60 177 52 285 -15
221 -95 403 -241 547 -161 158 -465 277 -825 321 -129 15 -509 30 -498 18z
m1023 -492 c-17 -15 -18 -15 -6 0 7 9 9 23 5 30 -6 10 -4 11 7 0 11 -10 10
-15 -6 -30z m-235 -1126 c0 -2 -8 -10 -17 -17 -16 -13 -17 -12 -4 4 13 16 21
21 21 13z m-3083 -7128 c-3 -7 -5 -2 -5 12 0 14 2 19 5 13 2 -7 2 -19 0 -25z"/>
<path d="M20500 11808 c-341 -63 -443 -87 -465 -108 -52 -49 -41 -120 30 -190
24 -24 46 -42 48 -39 1 2 18 28 37 56 33 50 50 64 50 43 0 -5 28 -39 62 -76
94 -100 201 -166 323 -200 28 -8 51 -14 53 -14 1 0 7 11 12 24 14 37 53 59 90
51 95 -21 80 -181 -23 -252 l-40 -27 6 -81 c6 -94 35 -187 82 -261 30 -46 32
-54 17 -58 -24 -8 -217 -206 -283 -290 -169 -217 -292 -483 -340 -735 -20
-106 -35 -141 -61 -141 -4 0 -8 48 -8 106 0 89 -3 110 -19 133 -29 40 -44 112
-39 186 3 53 13 82 52 159 48 95 166 289 244 401 23 32 40 60 38 62 -1 2 -52
-12 -112 -31 -328 -102 -614 -186 -633 -186 -11 0 -103 43 -203 96 -101 53
-246 130 -323 170 l-141 73 -63 -122 c-35 -67 -68 -125 -73 -128 -11 -7 25
-37 187 -151 281 -198 453 -309 538 -346 39 -17 194 -15 328 4 61 8 113 13
115 11 5 -4 34 -387 34 -443 l0 -42 -177 -103 c-193 -111 -438 -253 -545 -314
-38 -22 -68 -43 -68 -47 0 -4 -118 -8 -263 -8 -349 0 -342 6 -274 -209 l43
-134 33 41 33 42 -36 0 c-63 0 -52 31 25 70 26 14 37 25 33 35 -5 12 2 15 33
15 21 0 77 15 123 34 47 19 122 45 167 59 l81 25 20 -47 c23 -55 82 -135 129
-175 31 -26 36 -27 64 -16 25 11 32 11 39 0 12 -20 430 -1282 430 -1299 0 -7
-42 -79 -93 -160 -137 -215 -231 -382 -251 -449 -5 -16 12 -72 63 -197 39 -97
71 -180 71 -186 0 -6 -24 -9 -61 -7 l-61 3 -84 270 c-47 149 -109 347 -139
440 -29 94 -126 402 -215 685 -223 715 -197 641 -226 634 -21 -6 -24 -3 -24
24 0 17 4 42 10 56 11 31 4 32 -30 6 -56 -44 -80 -9 -38 58 12 19 17 33 12 31
-64 -27 -94 -45 -91 -54 3 -5 75 -235 162 -510 l158 -500 -27 -80 c-28 -82
-230 -668 -396 -1145 -84 -241 -202 -584 -345 -1000 -96 -277 -230 -667 -373
-1080 -77 -223 -247 -713 -377 -1090 -130 -377 -266 -770 -302 -874 -62 -176
-65 -191 -52 -215 20 -36 63 -49 97 -31 27 16 10 -33 522 1450 45 129 101 291
125 360 24 69 93 269 153 445 61 176 149 430 195 565 393 1137 563 1627 577
1668 l12 32 252 0 251 0 148 -472 c81 -260 183 -585 226 -723 44 -137 177
-560 296 -940 119 -379 274 -874 345 -1100 71 -225 190 -603 264 -840 87 -276
141 -434 152 -442 27 -20 68 -15 92 10 27 29 27 47 3 123 -78 241 -591 1883
-591 1892 0 9 85 12 353 12 l352 0 325 -981 c179 -540 333 -1002 343 -1028 21
-58 51 -76 97 -59 66 23 78 -23 -280 1056 -181 547 -330 999 -330 1003 0 5 41
9 90 9 l90 0 0 65 0 65 -114 0 c-95 0 -115 3 -120 16 -3 9 -6 17 -6 19 0 2 20
7 44 10 44 7 44 7 40 43 -18 160 -32 378 -27 428 6 62 6 62 43 70 l37 9 -119
720 -119 720 46 385 c101 842 104 863 124 885 34 36 98 168 117 240 32 123 21
377 -21 486 -4 10 12 28 55 59 33 24 59 49 56 55 -30 80 -266 817 -263 822 3
5 12 105 21 223 9 118 19 247 22 287 l6 71 58 7 c119 14 232 91 282 193 46 93
34 274 -23 345 l-19 25 28 10 c16 5 45 24 65 41 112 99 103 278 -20 412 -63
67 -130 108 -286 173 -241 99 -271 150 -260 435 5 132 3 165 -11 208 -24 71
-73 124 -148 159 -57 26 -74 29 -178 31 -63 1 -140 -3 -170 -9z m-290 -2841
c0 -57 -3 -186 -7 -285 l-6 -182 -49 0 -48 0 0 153 c0 85 -3 202 -6 260 l-7
106 54 25 c30 13 57 25 62 25 4 1 7 -46 7 -102z m-154 -19 c-9 -77 -46 -591
-46 -633 0 -32 4 -37 60 -65 53 -27 60 -34 66 -67 16 -93 44 -222 58 -267 l15
-49 -92 -138 c-51 -76 -95 -138 -99 -139 -11 0 -412 1214 -402 1217 5 2 101
46 214 97 113 52 211 94 218 95 10 1 12 -11 8 -51z m-812 -1919 c53 -168 96
-309 96 -313 0 -3 -92 -6 -205 -6 -113 0 -205 3 -205 6 0 9 213 624 215 622 2
-2 46 -141 99 -309z m1201 -385 c34 -221 34 -219 -21 -212 -26 3 -30 11 -81
163 -29 88 -53 164 -52 170 0 11 111 94 118 89 2 -2 18 -96 36 -210z m-548
-669 c73 -176 133 -324 133 -328 0 -4 -46 -6 -102 -5 l-102 3 -12 40 c-13 43
-169 542 -184 588 l-9 28 71 -3 72 -3 133 -320z m603 318 c0 -5 7 -48 15 -98
26 -159 17 -154 -45 23 l-29 82 29 0 c17 0 30 -3 30 -7z m-357 -911 l51 -124
46 7 c25 3 53 9 64 12 18 5 18 0 11 -118 -4 -68 -11 -126 -17 -128 -18 -6 -96
-121 -103 -151 -6 -29 -9 -30 -61 -30 -47 0 -56 3 -64 23 -5 12 -51 155 -101
317 -50 162 -94 301 -97 308 -3 10 20 12 108 10 l112 -3 51 -123z m551 -357
c9 -66 19 -132 22 -147 l6 -28 -114 1 -113 1 63 15 c70 17 65 9 82 143 24 188
31 190 54 15z m96 -315 c0 -6 -14 -64 -32 -130 -29 -111 -34 -122 -65 -141
-51 -32 -101 -97 -120 -156 l-17 -53 -142 0 -143 0 -46 148 c-26 81 -60 189
-76 240 -16 51 -29 94 -29 97 0 3 151 5 335 5 218 0 335 -4 335 -10z m319
-304 c3 -63 3 -112 0 -108 -3 4 -14 35 -24 68 -15 54 -16 68 -4 113 7 28 15
49 17 46 3 -2 7 -56 11 -119z m-129 -167 c0 -5 -70 -8 -172 -8 -193 2 -189 6
17 17 144 8 155 7 155 -9z"/>
<path d="M11670 11749 c-97 -19 -199 -91 -255 -179 -27 -43 -71 -167 -62 -176
5 -5 201 -64 202 -61 1 1 9 28 18 59 28 92 110 158 143 114 13 -19 12 -27 -30
-139 -14 -37 -26 -84 -26 -104 0 -46 59 -156 81 -150 8 2 59 30 113 61 l97 58
-21 34 c-26 45 -25 67 5 133 33 70 42 154 23 201 -47 112 -165 173 -288 149z
m142 -43 c46 -20 87 -62 110 -115 24 -51 20 -82 -23 -194 -28 -73 -29 -79 -14
-113 19 -46 19 -51 -3 -58 -10 -4 -45 -22 -77 -41 -31 -19 -59 -35 -61 -35 -2
0 -15 23 -30 51 -30 60 -28 82 17 194 34 87 36 108 9 135 -44 44 -131 10 -173
-68 -15 -27 -27 -57 -27 -66 0 -9 -7 -16 -15 -16 -27 0 -135 33 -135 41 0 20
43 115 71 155 76 111 245 174 351 130z"/>
<path d="M11875 11126 c-88 -38 -122 -155 -65 -224 22 -26 78 -52 115 -52 36
0 98 34 128 70 52 62 42 142 -25 194 -40 30 -102 35 -153 12z m139 -41 c27
-18 42 -68 32 -108 -8 -34 -53 -75 -92 -86 -76 -21 -140 26 -138 100 3 93 116
147 198 94z"/>
<path d="M18434 10899 c-131 -17 -175 -39 -155 -78 8 -14 25 -22 59 -26 26 -3
54 -7 62 -9 9 -1 0 -12 -23 -25 -45 -28 -43 -45 4 -49 19 -2 38 -7 43 -12 13
-12 -17 -45 -55 -60 -46 -19 -36 -33 19 -26 58 7 95 -11 68 -33 -9 -8 -16 -20
-16 -27 0 -25 29 -15 44 15 13 25 13 31 0 50 -8 11 -24 21 -34 21 -18 0 -18 1
-2 29 14 25 14 31 2 46 -8 10 -23 21 -35 25 -17 7 -17 9 -2 9 15 1 22 12 18
34 -2 15 20 6 25 -10 27 -86 90 -174 135 -188 37 -12 31 2 -17 47 -45 41 -94
124 -94 159 0 13 -16 18 -78 23 -80 7 -120 20 -92 30 57 19 118 29 205 32 100
3 134 16 74 28 -37 7 -73 6 -155 -5z"/>
<path d="M20569 10804 c-22 -27 -127 -92 -159 -99 -30 -6 -43 -35 -17 -35 24
0 132 59 173 94 28 25 36 37 28 46 -8 8 -15 6 -25 -6z"/>
<path d="M25085 10690 c-50 -25 -75 -65 -75 -120 0 -34 6 -48 34 -76 29 -29
41 -34 83 -34 57 0 105 26 133 72 35 58 21 115 -39 155 -42 28 -84 29 -136 3z"/>
<path d="M25222 10386 c-81 -36 -92 -44 -86 -61 19 -61 16 -84 -25 -165 -61
-122 -52 -201 31 -279 136 -128 401 -39 495 167 14 29 23 58 20 65 -4 11 -156
73 -160 65 -1 -1 -15 -29 -31 -60 -31 -64 -75 -98 -124 -98 -32 0 -62 22 -62
45 0 8 20 55 45 106 25 51 45 106 45 123 0 31 -39 137 -49 135 -3 -1 -48 -20
-99 -43z"/>
<path d="M11340 10395 c-134 -38 -231 -139 -284 -297 -3 -12 -16 -18 -36 -18
-97 0 -180 -118 -166 -234 10 -87 35 -143 124 -274 93 -138 139 -226 148 -284
4 -21 10 -38 13 -38 4 0 45 10 91 21 112 29 260 23 368 -13 40 -14 75 -22 77
-19 2 4 22 53 45 111 51 127 49 124 65 110 28 -23 35 1 11 33 -62 85 -61 231
4 252 26 8 58 -10 62 -37 2 -12 9 -23 16 -26 16 -5 16 50 1 65 -9 9 -7 40 6
125 l18 113 54 49 c85 77 130 175 104 224 -10 19 -20 20 -118 19 -107 -1 -109
-1 -203 42 -52 23 -117 52 -145 63 -67 27 -184 33 -255 13z"/>
<path d="M27961 10172 c-10 -8 -12 -25 -6 -78 10 -95 11 -96 57 -89 90 15 183
-34 176 -94 -4 -36 -41 -51 -122 -51 -101 0 -142 -15 -182 -68 -19 -25 -34
-48 -34 -53 0 -4 37 -34 82 -67 l83 -60 20 29 c24 35 68 49 150 49 107 0 179
54 206 154 30 111 -51 240 -190 304 -43 20 -76 27 -141 29 -47 2 -91 0 -99 -5z"/>
<path d="M1275 9811 c-101 -62 -114 -178 -28 -239 109 -77 274 23 249 151 -18
91 -139 139 -221 88z m136 -27 c43 -22 62 -72 46 -121 -31 -96 -180 -115 -222
-28 -20 43 -19 63 4 101 35 57 113 79 172 48z"/>
<path d="M27745 9624 c-43 -22 -65 -54 -65 -97 0 -78 60 -137 140 -137 34 0
48 6 76 34 27 27 34 42 34 73 0 53 -32 100 -83 123 -51 24 -64 24 -102 4z"/>
<path d="M1413 9508 l-111 -51 21 -44 21 -43 -41 -83 c-50 -100 -60 -143 -43
-203 17 -60 87 -138 145 -159 65 -25 173 -17 252 19 76 34 158 117 195 196 47
98 50 90 -60 133 -53 21 -100 37 -104 37 -3 0 -9 -13 -13 -29 -3 -16 -20 -50
-36 -75 -23 -34 -41 -49 -70 -58 -34 -10 -42 -9 -56 4 -14 15 -12 25 31 115
28 61 46 113 46 135 0 35 -46 159 -59 157 -3 0 -56 -23 -118 -51z m131 -43
c23 -57 17 -89 -34 -193 -46 -92 -48 -114 -19 -143 17 -17 30 -20 66 -16 53 6
101 47 133 113 l20 43 67 -25 c38 -14 69 -27 71 -28 1 -2 -12 -31 -29 -65 -66
-131 -178 -205 -314 -206 -91 0 -139 23 -182 89 -48 71 -46 127 8 236 40 80
44 106 24 153 -6 14 6 23 66 51 41 19 81 35 89 35 9 1 23 -18 34 -44z"/>
<path d="M26544 9170 c-94 -24 -182 -70 -236 -121 -24 -22 -63 -57 -88 -77
-112 -90 -162 -164 -181 -268 -17 -91 -4 -313 30 -529 17 -104 31 -227 31
-273 0 -92 8 -100 47 -43 49 73 56 264 15 446 -27 117 -45 283 -40 350 4 42
12 61 43 99 78 95 219 181 305 186 75 4 74 5 99 -72 59 -184 196 -410 338
-555 79 -82 177 -153 211 -153 18 0 15 35 -10 92 l-21 50 24 19 c13 10 44 26
69 35 120 44 178 221 131 403 -53 211 -207 370 -403 416 -90 21 -275 19 -364
-5z"/>
<path d="M5614 8712 c-61 -21 -139 -70 -179 -112 l-29 -30 64 -65 c36 -36 67
-65 70 -65 3 0 19 13 36 29 67 63 162 84 205 45 42 -38 25 -69 -88 -159 -78
-61 -93 -89 -93 -168 l0 -67 115 0 115 0 0 35 c0 49 15 75 65 114 114 86 138
127 133 226 -3 60 -8 79 -33 115 -55 79 -146 120 -264 120 -36 -1 -89 -9 -117
-18z"/>
<path d="M26906 8054 c-8 -21 9 -50 57 -101 42 -43 66 -79 67 -99 0 -6 -18
-16 -39 -23 -71 -21 -150 -62 -171 -88 -10 -14 -22 -41 -25 -62 -4 -20 -11
-46 -17 -58 -8 -17 -7 -28 5 -46 14 -22 13 -26 -14 -66 -45 -67 -46 -99 -11
-225 40 -140 49 -195 62 -381 5 -82 15 -215 20 -295 6 -80 17 -248 25 -375 15
-235 30 -350 65 -481 11 -40 20 -78 20 -82 0 -24 -184 -62 -300 -62 -120 1
-347 37 -372 59 -5 4 1 50 13 101 11 52 28 167 38 255 16 140 21 161 40 173
11 8 21 20 21 26 0 18 201 87 229 80 22 -7 23 -5 17 22 -17 63 -26 154 -26
256 0 107 -9 135 -33 105 -15 -18 -61 -28 -150 -32 l-69 -4 6 37 c3 20 11 84
16 142 23 215 87 578 115 642 11 26 -36 41 -131 41 -61 0 -93 -5 -125 -20 -27
-12 -65 -21 -96 -21 -132 0 -190 -29 -212 -108 -23 -83 -101 -445 -121 -558
-44 -267 -50 -458 -16 -582 19 -73 64 -151 99 -173 23 -14 26 -19 13 -24 -27
-11 -18 -27 15 -27 26 0 30 -3 24 -17 -4 -10 -32 -99 -62 -198 -69 -228 -98
-354 -86 -366 5 -5 70 -21 144 -36 74 -14 137 -29 142 -33 10 -8 -38 -251
-138 -700 -133 -594 -155 -739 -136 -880 7 -44 58 -219 125 -425 63 -192 153
-467 199 -610 97 -299 195 -566 211 -578 22 -16 169 0 232 26 l61 24 6 -78 c8
-102 16 -115 71 -123 51 -8 48 -2 66 -146 6 -47 20 -135 31 -197 11 -62 20
-136 20 -165 1 -89 -52 -302 -90 -365 -36 -58 -119 -106 -145 -84 -10 9 -19 4
-38 -21 -27 -36 -48 -72 -48 -84 0 -12 93 4 151 25 53 20 58 25 83 80 29 66
72 197 83 251 3 19 12 40 20 45 25 19 27 139 4 275 -24 145 -51 335 -51 363 0
15 5 18 29 12 42 -9 221 13 296 36 76 23 73 17 110 239 51 302 66 495 75 960
9 477 6 453 94 905 101 524 119 912 56 1255 -11 57 -18 104 -17 105 1 0 34 16
74 34 l71 34 -15 51 c-38 128 -111 270 -204 392 -37 49 -47 69 -39 79 6 7 8
19 4 28 -3 8 2 30 12 49 14 26 17 55 15 143 -1 61 -7 127 -12 149 -13 47 -49
106 -66 106 -19 0 -16 -12 14 -71 24 -45 28 -67 31 -158 4 -105 4 -106 -16
-86 -23 23 -76 170 -74 203 2 31 -13 28 -55 -13 -38 -37 -111 -65 -170 -65
-18 0 -33 -5 -33 -11 0 -6 -17 -9 -42 -7 l-43 3 -7 60 c-4 33 -16 200 -28 370
-19 297 -33 395 -75 545 -27 97 -26 101 77 237 51 66 68 98 63 110 -5 15 -12
11 -45 -27 -22 -25 -40 -48 -40 -52 0 -5 -7 -8 -15 -8 -11 0 -13 8 -9 33 17
96 42 127 102 127 43 0 95 -27 88 -45 -7 -18 12 -31 26 -17 18 18 0 59 -32 72
-17 7 -33 16 -35 20 -8 13 78 -2 100 -16 11 -8 25 -14 32 -14 23 0 14 30 -12
42 -19 8 -23 16 -19 34 8 32 -27 103 -75 149 -51 49 -52 60 -3 39 20 -9 45
-17 55 -18 29 -4 102 -81 137 -147 38 -72 41 -65 -81 -190 -111 -114 -143
-175 -148 -286 -3 -75 1 -96 48 -250 73 -243 201 -626 211 -637 22 -22 19 28
-5 113 -15 51 -25 94 -23 96 8 9 99 -19 158 -48 54 -27 69 -40 88 -77 12 -24
22 -57 22 -72 0 -59 18 -31 58 90 124 374 142 597 61 728 -24 39 -88 78 -153
95 l-47 12 7 106 c11 179 -19 313 -93 414 -41 56 -130 130 -145 121 -5 -4 -31
-12 -57 -19 -42 -11 -52 -10 -82 6 -42 23 -85 24 -93 3z m133 -699 c-39 -133
-41 -136 -49 -100 -21 87 -4 203 42 275 l22 35 7 -55 c6 -46 3 -72 -22 -155z
m-346 -3575 c-3 -448 -8 -862 -12 -920 l-6 -105 -102 410 c-127 507 -156 642
-156 725 0 71 14 113 151 425 39 88 81 195 94 237 15 49 25 70 29 60 3 -9 4
-384 2 -832z"/>
<path d="M5609 7981 c-35 -35 -39 -44 -39 -88 0 -40 5 -56 25 -77 110 -119
312 -17 252 127 -22 52 -68 77 -141 77 -55 0 -61 -3 -97 -39z"/>
<path d="M26817 7949 c-36 -27 -171 -89 -196 -89 -12 0 -21 -7 -21 -15 0 -22
45 -18 112 9 75 31 158 84 158 102 0 20 -23 17 -53 -7z"/>
<path d="M5553 7413 c-41 -38 -66 -79 -57 -95 4 -7 4 -10 0 -6 -5 4 -22 -12
-40 -35 -45 -60 -88 -79 -157 -72 -124 13 -284 -36 -347 -106 -15 -17 -27 -34
-28 -37 0 -4 -9 -25 -18 -46 -13 -29 -17 -59 -14 -116 l3 -77 -45 -35 c-25
-20 -44 -40 -43 -47 2 -6 -3 -10 -10 -8 -6 1 -11 -4 -10 -10 2 -7 -2 -12 -9
-10 -6 1 -25 -25 -42 -57 -28 -54 -31 -68 -31 -150 0 -79 4 -99 28 -147 33
-68 111 -174 181 -247 51 -53 81 -105 71 -122 -10 -17 13 -20 41 -5 16 8 34
15 40 15 19 0 89 78 102 113 12 32 10 35 -27 75 -97 102 -67 272 49 272 32 0
100 -26 98 -38 -2 -20 3 -32 15 -32 16 0 34 -41 49 -111 11 -54 14 -58 46 -64
19 -3 35 -5 37 -3 2 2 0 28 -4 58 -4 30 -2 70 3 88 l9 32 137 0 c75 0 184 3
242 6 l105 7 6 -42 c9 -74 52 -101 95 -61 44 41 57 80 57 173 0 85 -1 90 -28
113 -68 58 -137 -4 -137 -123 l0 -33 -225 0 c-124 0 -225 2 -225 5 0 3 20 33
45 66 32 44 44 68 39 82 -4 14 -3 17 6 12 19 -12 6 35 -35 124 -38 84 -36 104
13 137 27 19 237 94 262 94 28 0 163 76 190 106 55 63 28 123 -50 110 -38 -6
-54 4 -29 19 5 4 14 18 20 32 12 32 -2 58 -43 79 -37 19 -80 13 -156 -21 l-53
-24 3 27 c2 15 9 33 16 40 22 24 14 62 -19 93 -41 38 -85 39 -126 2z m484
-874 c20 -38 16 -110 -9 -159 -13 -24 -28 -46 -35 -48 -29 -8 -31 210 -3 228
21 13 33 8 47 -21z"/>
<path d="M27310 6576 c0 -7 7 -19 15 -26 42 -35 59 -83 64 -184 5 -81 9 -101
21 -101 12 0 15 16 14 91 -2 97 -23 165 -66 211 -24 26 -48 30 -48 9z"/>
<path d="M5290 6022 c0 -34 159 -157 254 -197 43 -18 46 -18 46 -2 0 8 -40 38
-90 67 -49 29 -114 75 -144 101 -30 27 -57 49 -60 49 -3 0 -6 -8 -6 -18z"/>
<path d="M4917 5896 c-57 -35 -78 -57 -72 -77 5 -14 -19 -35 -112 -97 -644
-431 -1068 -916 -1227 -1402 -63 -196 -71 -250 -71 -509 0 -179 3 -235 13
-239 6 -2 12 -16 12 -30 0 -85 75 -252 142 -321 103 -104 199 -155 369 -195
159 -38 306 -50 619 -49 589 0 1209 81 1377 179 96 56 148 165 148 309 0 82
-3 97 -33 157 -19 40 -50 82 -75 104 -42 36 -149 93 -177 95 -8 0 -4 5 10 10
17 7 26 7 28 0 4 -12 66 -14 124 -5 l36 6 1 117 c0 64 5 141 10 171 8 45 7 57
-6 67 -23 18 -120 27 -149 14 -14 -6 -34 -11 -44 -11 -19 0 -19 12 -18 393 0
215 -3 440 -7 500 l-7 107 34 0 c35 0 35 0 41 53 4 28 4 68 1 88 l-6 37 -117
20 c-147 27 -252 42 -288 42 -28 0 -29 -2 -46 -82 -21 -104 -21 -108 3 -108
12 0 20 -7 20 -17 0 -37 -34 -189 -46 -206 -10 -16 -13 -9 -23 50 -7 37 -27
122 -46 188 -29 105 -32 122 -19 136 23 25 17 61 -26 146 -71 144 -178 272
-295 353 l-41 28 -37 -22z"/>
<path d="M6023 5888 c-4 -7 -13 -26 -18 -43 l-10 -30 -140 0 c-148 0 -215 -16
-215 -49 0 -20 8 -20 56 0 33 14 62 16 178 10 77 -3 144 -10 150 -16 15 -15
46 -12 46 5 0 9 -10 19 -22 24 -22 8 -22 8 6 22 35 17 39 33 10 37 -16 2 -20
8 -17 21 6 23 -12 36 -24 19z"/>
<path d="M6530 3794 c0 -8 16 -47 36 -85 21 -39 40 -85 43 -102 9 -42 37 -44
34 -3 -3 39 -84 206 -100 206 -7 0 -13 -7 -13 -16z"/>
<path d="M6487 3744 c-3 -3 15 -45 40 -92 43 -78 47 -93 51 -169 3 -59 8 -83
17 -83 38 0 28 137 -16 230 -45 96 -74 132 -92 114z"/>
<path d="M6425 3731 c-3 -6 17 -44 45 -84 52 -75 63 -113 45 -164 -10 -31 20
-32 36 -2 21 41 5 103 -48 180 -50 74 -66 88 -78 70z"/>
<path d="M14728 2463 c7 -3 16 -2 19 1 4 3 -2 6 -13 5 -11 0 -14 -3 -6 -6z"/>
<path d="M27066 1488 c-5 -17 -26 -129 -26 -140 0 -4 7 -8 15 -8 17 0 35 59
35 118 0 39 -16 58 -24 30z"/>
<path d="M27033 1253 c-100 -205 -156 -292 -203 -315 -43 -22 -98 -23 -120 -3
-16 14 -22 11 -70 -34 -29 -27 -50 -55 -48 -63 6 -17 168 -24 219 -9 46 14
110 60 144 105 15 19 42 70 61 113 l35 78 -3 -115 -3 -115 26 -3 c26 -3 26 -2
32 85 4 48 18 132 32 186 32 126 33 197 3 232 l-23 26 -82 -168z"/>
</g>
</svg>
